<?xml version="1.0" standalone="no"?><!DOCTYPE svg PUBLIC "-//W3C//DTD SVG 1.1//EN" "http://www.w3.org/Graphics/SVG/1.1/DTD/svg11.dtd"><svg t="1545361074675" class="icon" style="" viewBox="0 0 1024 1024" version="1.1" xmlns="http://www.w3.org/2000/svg" p-id="5796" xmlns:xlink="http://www.w3.org/1999/xlink" width="200" height="200"><defs><style type="text/css"></style></defs><path d="M883.062366 196.358423c-34.500358 2.569176-74.873118 26.792832-101.66595 40.37276l-27.526882 13.212903c6.973477-11.010753 19.819355-15.415054 30.463082-22.38853 17.617204-12.111828 34.867384-24.223656 52.484588-36.335484 8.074552-5.872401 16.149104-12.111828 24.223656-17.98423-14.313978 2.936201-27.893907 12.111828-39.271684 19.085305-32.665233 19.45233-63.128315 41.473835-97.995699 57.622939 6.973477-9.175627 17.617204-17.250179 26.792831-24.590681 19.45233-15.782079 40.005735-34.133333 55.787814-53.952688 5.138351-6.239427 12.111828-12.111828 15.415054-19.819355-11.377778 6.239427-20.18638 15.415054-30.096058 23.122581-29.729032 23.122581-55.053763 52.484588-87.351971 72.670967 16.883154-22.755556 35.968459-43.675986 43.675986-75.974193-15.415054 11.744803-26.058781 31.931183-37.43656 48.080287-12.845878 18.351254-26.792832 35.968459-40.739784 53.218638-17.617204 21.65448-46.979211 33.766308-70.835843 48.814336-7.707527 5.505376-15.415054 11.010753-23.489605 16.51613-2.936201 2.569176-5.872401 5.505376-8.808603 8.074551-4.771326 2.569176-9.175627 2.569176-13.212903 5.505377-14.313978 10.276703-18.351254 34.867384-34.500358 42.207885l-1.101076 1.101075c-4.404301-4.771326-8.808602-9.542652-13.212903-13.946953-11.744803-9.542652-28.260932-20.92043-42.941935-26.792832 0.367025-2.569176 0.73405-5.505376 1.101075-8.074552-4.404301-3.303226-13.212903-6.606452-20.553405-6.606451l-0.367025-0.367025c0.73405-3.303226 1.835125-5.138351 1.4681-8.808602h-1.101075c-3.303226-2.936201-14.313978-5.138351-20.553405-3.303226h0.367025v-11.010753c-6.239427-1.4681-14.681004-2.569176-22.021505-1.4681 1.4681-7.340502-2.202151-10.643728-3.303226-16.516129-17.250179-0.73405-25.691756 4.404301-36.335484 10.643727l-0.367025-0.367025c-1.4681-8.441577 5.138351-13.946953 7.707527-20.18638-2.202151-1.4681-5.505376-1.4681-9.175627-1.4681-11.744803 0-22.755556 5.138351-29.729033 10.643728-4.771326 3.670251-7.707527 10.276703-14.681003 12.111828h-2.569176c1.835125-9.175627 5.138351-19.45233 8.808602-27.159857-15.415054-11.744803-35.234409 11.377778-43.30896 17.617204 0-10.276703 4.037276-21.287455 1.4681-31.197132v-1.468101c-24.957706-2.936201-22.38853 15.048029-28.994982 33.032258v1.101076h-0.367025c-5.872401-19.45233-11.744803-39.271685-25.324731-51.383513-0.367025 0-1.101075-0.367025-1.468101-0.367025-11.744803 17.984229-2.202151 44.043011 1.835126 64.596416-4.771326-4.037276-6.606452-11.377778-9.542653-16.883154-9.542652-18.71828-16.883154-40.739785-35.601433-51.016488-12.111828 20.18638 11.377778 48.814337 13.946953 66.431541-9.542652-6.973477-11.377778-21.65448-28.260932-19.819354-2.569176 9.542652 4.771326 17.984229 8.441577 23.85663 11.744803 19.45233 28.627957 30.830108 48.080287 42.574911 19.45233 11.010753 38.537634 22.021505 57.989964 33.032258 34.500358 24.223656 71.202867 66.064516 82.580645 112.309677-12.845878 15.048029-37.069534 18.71828-49.181362 34.867384-4.771326 6.239427-7.340502 14.313978-8.808602 23.856631v8.808602c-4.771326 12.111828-14.681004 28.627957 5.505377 34.500358-1.835125-13.946953 4.771326-9.542652 12.478853-14.681003 2.202151-2.569176 4.404301-4.771326 6.973476-7.340502 8.808602-5.872401 27.526882-9.175627 42.207886-6.239427 34.133333 6.239427 56.521864 24.590681 90.288172 31.197133 37.069534 6.973477 79.644444-5.138351 118.182078-4.771326 1.4681 19.45233 16.516129 33.766308 31.564158 39.638709 13.212903 5.138351 28.994982-0.367025 33.032258-10.276702l1.101076-1.101075-0.367026-0.367026c-2.936201 0-5.872401-0.367025-8.808602-0.367025-0.367025 0-1.101075-0.367025-1.4681-0.367025 1.835125-8.808602 1.101075-13.946953-1.835126-21.65448 0.367025-1.835125 0-1.4681 1.101076-2.569176 2.202151-1.4681 4.771326 0 7.707527 0.367025h0.367025c0-4.771326-0.367025-9.542652-0.367025-13.946953 6.239427 1.101075 12.478853 2.202151 19.085304 3.303226 0.73405-0.367025 1.4681-0.73405 1.835126-1.101075 0-0.73405 0.367025-1.4681 0.367025-1.835126-1.835125-2.569176-4.404301-4.037276-4.771326-7.707527 5.138351-5.505376 25.691756 8.808602 35.601433-1.835125 15.782079 3.670251 32.665233 20.92043 53.952689 13.946953v-5.505376c1.4681-2.202151 3.303226-2.569176 6.239426-1.4681 2.569176-3.670251-4.771326-6.973477-8.808602-7.340502 1.4681-2.569176 3.670251-3.303226 7.340502-4.037276-2.936201-3.303226-9.909677-4.771326-15.048029-5.872402-0.367025-0.73405-1.101075-1.4681-1.4681-1.835125 2.569176-1.101075 4.771326-1.835125 7.340501-2.936201-4.404301-4.404301-16.516129-5.505376-23.489605-7.340502 1.835125-2.936201 5.138351-3.670251 9.542652-4.037276v-0.367025c-8.074552-1.4681-15.782079-2.569176-23.856631-4.037276-24.957706-4.037276-51.383513 0-69.000717-10.643727-4.771326-2.936201-7.340502-7.340502-11.010752-11.010753-2.569176-2.202151-15.415054-1.4681-19.45233-4.404301 0-0.367025-0.367025-1.101075-0.367025-1.4681 11.744803 1.835125 21.65448-1.101075 32.665233-1.835126 0.367025-5.872401-1.4681-7.707527-4.037276-11.744803v-4.771326c21.65448 3.670251 22.38853-26.425806 8.441577-31.931183 0-0.367025-0.367025-0.73405-0.367025-1.101075 5.138351-1.4681 11.010753-0.73405 17.617204-1.101075 0-2.569176 0.367025-4.771326 0.367025-7.340502 2.936201-5.138351 8.441577-4.404301 8.808602-13.212903h9.175628c2.569176-10.276703 14.313978-5.872401 14.681003-19.45233 5.138351 2.569176 13.946953 0 10.643728-7.707527 3.670251 0.73405 7.340502 0 10.643727-0.367025 1.835125-2.202151 2.569176-3.303226 2.569176-7.707527 5.872401 1.835125 9.909677-0.367025 13.946953-2.569175 0.367025-5.138351 0-9.175627-3.303225-10.643728 0-0.73405 0.367025-1.4681 0.367025-1.835126h12.111828c1.101075-1.101075 3.670251-9.909677 5.505376-12.111827 6.239427-8.074552 19.085305-11.744803 21.287455-24.223656 10.276703 0 18.351254-4.037276 18.351255-14.681004 13.946953 0 23.489606-9.542652 23.85663-23.122581 12.845878-3.670251 20.18638-7.340502 19.819355-23.85663 22.755556-0.367025 24.957706-16.516129 34.867384-28.994983 3.670251-2.202151 6.973477-4.404301 10.643727-6.606451h1.101076V267.928315c-12.111828-2.936201-28.627957-1.835125-40.739785 0v-0.367025c11.744803-4.771326 28.260932-9.175627 42.941935-11.744803-7.340502-8.074552-35.234409-4.037276-48.080286-4.037276v-0.367025c14.681004-4.037276 41.473835-10.643728 52.484587-19.085304h1.101076c-9.175627-3.670251-26.058781 0.73405-33.399284 2.569175-26.792832 5.872401-49.548387 12.845878-73.405017 21.654481 35.968459-19.819355 71.569892-39.63871 107.538351-59.458065-0.73405-0.367025-0.73405-0.367025-0.73405-0.73405zM317.476703 567.787814c-2.569176 0-4.771326-2.202151-4.771327-4.771327 0-2.569176 2.202151-4.771326 4.771327-4.771326 2.569176 0 4.771326 2.202151 4.771326 4.771326 0 2.936201-2.202151 4.771326-4.771326 4.771327z" fill="#1296db" p-id="5797"></path></svg>